 <svg version="1.0" xmlns="http://www.w3.org/2000/svg"  width="241.000000pt" height="241.000000pt" viewBox="0 0 241.000000 241.000000"  preserveAspectRatio="xMidYMid meet">  <g transform="translate(0.000000,241.000000) scale(0.100000,-0.100000)" fill="#FFF" stroke="#FFF"> <path d="M945 2380 c-344 -78 -630 -294 -799 -602 -73 -133 -135 -344 -136 -462 0 -86 16 -59 26 44 3 24 9 49 14 54 6 6 10 25 10 42 0 18 4 36 10 39 5 3 10 19 10 35 0 15 4 30 9 32 6 2 11 14 13 28 2 14 16 51 31 82 15 31 27 60 27 64 0 10 71 127 89 146 31 34 41 47 41 58 0 6 5 8 10 5 6 -3 10 -1 10 5 0 17 131 150 147 150 8 0 11 5 8 10 -3 6 0 10 7 10 7 0 24 12 37 25 13 14 29 25 36 25 7 0 18 7 25 15 7 8 51 34 99 58 47 24 95 48 106 54 21 11 136 43 170 47 11 2 38 8 60 14 22 6 66 16 98 22 31 7 57 13 57 16 0 11 -144 0 -215 -16z"/> <path d="M1255 2391 c11 -5 46 -13 78 -16 31 -4 57 -10 57 -14 0 -3 10 -6 23 -7 53 -3 87 -9 87 -16 0 -4 11 -8 25 -8 14 0 45 -9 67 -20 23 -11 50 -20 60 -20 10 0 18 -4 18 -10 0 -5 9 -10 20 -10 11 0 20 -4 20 -10 0 -5 7 -10 14 -10 15 0 130 -63 156 -86 8 -7 33 -29 55 -49 21 -19 47 -38 57 -41 10 -3 18 -12 18 -20 0 -8 5 -13 12 -12 7 2 12 -2 13 -8 0 -6 16 -26 36 -45 19 -19 48 -52 65 -74 16 -22 35 -46 42 -53 7 -8 10 -18 7 -23 -4 -5 -1 -9 4 -9 6 0 11 -7 11 -15 0 -8 5 -15 10 -15 6 0 10 -5 10 -11 0 -6 9 -24 21 -40 11 -16 17 -34 13 -40 -4 -7 -3 -9 4 -6 6 4 17 -15 28 -48 9 -31 21 -58 25 -61 5 -3 9 -18 9 -33 0 -15 3 -31 7 -35 4 -3 8 -12 9 -19 5 -28 13 -64 23 -95 5 -18 10 -35 10 -37 0 -3 6 -31 13 -63 l13 -57 3 43 c13 172 -103 471 -255 661 -199 249 -524 424 -808 437 -66 3 -93 1 -80 -5z"/> <path d="M1105 2241 c-3 -3 -28 -7 -168 -28 -20 -3 -40 -9 -43 -14 -3 -5 -14 -9 -25 -9 -11 0 -37 -9 -57 -19 -21 -11 -46 -21 -57 -23 -11 -1 -22 -6 -25 -9 -3 -4 -32 -20 -66 -37 -34 -17 -83 -51 -110 -76 -27 -26 -55 -44 -61 -41 -7 2 -12 0 -10 -5 1 -5 -26 -38 -60 -74 -35 -35 -63 -69 -63 -76 0 -6 -5 -8 -12 -4 -6 4 -8 3 -5 -3 4 -5 -4 -21 -16 -34 -12 -13 -21 -24 -19 -24 5 0 -13 -44 -47 -114 -17 -36 -31 -72 -31 -82 0 -10 -5 -21 -10 -24 -6 -4 -11 -21 -11 -38 0 -18 -3 -99 -6 -182 -5 -151 4 -240 33 -336 8 -25 17 -56 19 -69 3 -13 9 -26 14 -29 5 -4 13 -20 17 -36 4 -16 13 -36 21 -43 7 -7 13 -19 13 -27 0 -7 7 -16 16 -19 8 -3 12 -11 8 -17 -4 -8 -3 -9 4 -5 7 4 14 -3 18 -18 3 -13 14 -32 25 -42 10 -9 16 -21 12 -27 -3 -6 -1 -7 6 -3 6 4 14 0 17 -8 3 -9 10 -13 15 -10 5 3 9 -1 9 -9 0 -7 12 -19 26 -26 15 -6 39 -23 54 -38 24 -22 108 -67 87 -47 -4 4 -2 13 4 21 6 7 8 13 5 13 -4 0 -2 10 5 21 7 14 7 19 0 15 -5 -4 -15 3 -22 16 -6 12 -21 31 -31 42 -19 20 -39 59 -43 81 -3 20 -24 63 -35 70 -15 10 -41 77 -35 92 2 8 1 12 -4 9 -11 -7 -24 41 -16 54 4 6 2 10 -2 10 -5 0 -9 8 -10 18 -1 9 -7 62 -13 117 -13 107 -2 296 18 303 5 1 8 12 5 22 -3 11 -2 28 1 37 6 15 8 15 16 3 6 -8 10 -10 10 -5 0 6 -5 16 -11 22 -8 8 -7 13 2 18 8 6 10 4 4 -5 -5 -9 -4 -11 4 -6 6 4 9 11 6 16 -3 5 8 32 25 60 16 28 30 55 30 60 0 5 8 13 18 19 9 5 16 12 14 15 -5 13 32 57 44 52 8 -3 13 0 11 7 -1 7 4 11 11 9 6 -1 12 5 12 13 0 8 13 24 30 36 16 12 26 27 23 32 -3 6 -1 7 5 3 6 -3 23 5 39 20 23 22 61 43 83 46 3 1 10 7 15 15 6 8 17 15 25 17 8 2 35 12 60 23 73 33 137 43 260 43 111 0 170 -7 215 -26 22 -9 49 -20 60 -24 121 -49 240 -123 229 -142 -4 -7 -2 -8 5 -4 10 7 41 -15 41 -29 0 -4 19 -25 43 -48 23 -22 33 -34 22 -26 -11 8 -6 -3 12 -26 59 -75 117 -201 129 -280 10 -64 6 -297 -4 -307 -7 -7 -12 -26 -12 -44 0 -30 -30 -110 -47 -128 -4 -4 -8 -11 -8 -15 0 -15 -40 -91 -48 -91 -5 0 -5 5 -1 12 5 7 3 8 -5 4 -7 -5 -10 -11 -7 -14 3 -3 -2 -14 -11 -25 -11 -12 -12 -17 -4 -12 10 5 12 4 7 -3 -4 -7 -14 -12 -22 -12 -8 0 -14 -7 -14 -15 0 -8 -7 -15 -17 -15 -9 0 -14 -3 -11 -6 6 -5 -72 -81 -78 -77 -2 1 -20 -13 -41 -32 -78 -72 -139 -85 -301 -64 -59 7 -109 13 -112 12 -3 -1 -63 -4 -135 -8 -71 -3 -157 -11 -190 -16 -60 -9 -153 -38 -125 -39 11 0 11 -3 2 -12 -18 -18 -15 -30 13 -62 23 -27 31 -30 75 -27 34 2 57 -3 72 -15 15 -11 17 -14 6 -11 -10 4 -18 2 -18 -3 0 -15 -111 -2 -130 15 -11 10 -19 12 -21 6 -3 -6 -25 -1 -57 14 -29 13 -56 25 -60 25 -4 1 -21 10 -38 21 -40 24 -96 25 -117 1 -20 -22 -22 -70 -4 -92 13 -16 72 -55 120 -79 20 -11 24 -17 15 -23 -8 -6 -5 -7 10 -3 15 4 24 1 28 -9 3 -9 10 -13 15 -10 5 3 9 0 9 -5 0 -6 3 -10 8 -9 13 4 53 -23 47 -32 -3 -6 1 -7 9 -4 9 3 16 1 16 -4 0 -18 -17 -22 -30 -7 -6 7 -18 11 -26 8 -8 -3 -14 0 -14 6 0 6 -7 11 -16 11 -9 0 -12 5 -8 13 5 7 0 6 -11 -3 -17 -14 -18 -13 -12 2 3 10 1 20 -5 24 -7 4 -8 3 -4 -4 14 -22 -23 -12 -39 11 -8 12 -18 20 -21 18 -11 -7 -54 31 -47 42 4 6 1 7 -7 2 -8 -5 -18 -1 -27 10 -7 11 -13 16 -13 11 0 -4 -21 14 -46 39 -25 25 -50 45 -55 45 -5 0 -9 5 -9 10 0 6 -12 23 -27 37 -16 14 -26 30 -25 37 2 6 1 8 -3 4 -4 -3 -27 24 -52 60 -25 37 -49 69 -52 72 -4 3 -15 23 -25 45 -10 22 -31 66 -47 98 -17 31 -28 61 -24 66 3 5 1 12 -4 15 -7 5 -23 61 -19 69 1 1 -5 13 -12 27 -7 14 -15 34 -16 45 -3 19 -14 81 -29 165 -12 68 -18 43 -12 -55 17 -292 187 -605 435 -805 188 -152 465 -262 652 -259 37 0 41 2 22 9 -12 5 -52 15 -87 21 -36 6 -67 15 -70 20 -3 4 -13 5 -22 2 -9 -4 -14 -2 -11 3 4 5 -6 10 -20 10 -34 2 -83 12 -90 19 -3 3 0 5 7 5 7 0 9 5 5 11 -3 6 -16 8 -28 5 -11 -3 -27 -1 -34 3 -23 14 14 21 48 10 17 -6 41 -8 55 -5 13 3 26 2 29 -3 3 -4 18 -6 32 -3 21 4 25 2 19 -9 -6 -11 -5 -11 4 -3 9 8 25 9 54 2 23 -5 74 -9 112 -9 92 2 105 3 105 11 0 4 6 7 13 8 34 3 111 23 121 31 6 5 30 15 54 22 23 7 47 18 53 26 6 7 20 13 30 13 22 0 107 49 176 102 36 27 58 38 70 34 10 -4 14 -4 10 0 -9 9 23 33 46 34 9 0 17 6 17 14 0 13 27 31 43 28 4 -1 7 2 7 6 0 5 7 17 16 28 13 15 15 16 10 2 -3 -11 -1 -15 8 -12 8 3 12 14 8 26 -3 13 -1 19 5 15 6 -4 13 2 16 14 3 13 12 19 24 17 9 -2 18 3 18 10 0 7 5 16 10 20 6 4 10 13 11 20 2 28 4 33 12 29 10 -7 26 14 30 38 5 28 9 30 29 14 15 -12 16 -12 8 1 -14 22 -12 33 10 58 11 13 20 27 21 30 2 18 28 61 35 57 4 -3 5 4 2 15 -3 11 -1 20 5 20 6 0 9 8 7 18 -1 9 3 26 9 37 7 11 19 49 26 85 7 36 16 70 19 75 9 15 11 51 10 175 0 119 -1 134 -13 161 -4 9 -6 20 -5 25 3 12 -9 58 -27 109 -7 22 -15 52 -16 67 -1 15 -6 24 -10 22 -4 -3 -8 2 -8 10 0 9 -5 16 -11 16 -5 0 -8 4 -4 9 3 5 -3 17 -12 27 -10 10 -18 20 -17 23 1 3 -10 23 -22 43 -13 21 -24 42 -24 47 0 5 -14 24 -30 42 -17 17 -29 38 -26 46 3 8 2 12 -3 9 -4 -3 -19 6 -32 21 -13 14 -18 23 -10 18 10 -6 12 -4 7 4 -5 7 -14 10 -22 7 -9 -4 -14 2 -14 16 0 12 -3 19 -6 15 -8 -8 -42 26 -36 37 3 5 0 6 -7 2 -12 -8 -111 61 -111 77 0 4 -4 6 -8 3 -5 -3 -28 9 -53 25 -24 16 -69 41 -99 55 -30 14 -63 29 -72 35 -10 5 -31 9 -48 9 -16 0 -30 5 -30 10 0 6 -3 9 -7 8 -20 -4 -133 16 -133 23 0 7 -197 8 -205 0z m324 -60 c203 -51 405 -180 535 -343 112 -140 180 -295 212 -486 50 -291 -63 -627 -286 -849 -68 -68 -319 -231 -435 -283 -38 -17 -116 -45 -173 -62 -115 -34 -179 -35 -385 -4 -122 18 -111 13 -273 113 -123 77 -148 100 -138 128 10 25 42 18 196 -45 l147 -60 78 16 c52 11 86 25 103 40 40 39 17 49 -113 49 l-112 0 0 35 c0 32 2 35 40 41 22 4 120 13 217 20 158 11 188 10 282 -5 149 -25 190 -15 304 71 48 36 107 84 131 107 96 91 186 266 212 411 16 92 6 281 -19 360 -54 173 -176 338 -317 431 -58 39 -213 104 -295 125 -71 18 -234 16 -330 -5 -155 -33 -342 -149 -451 -280 -65 -79 -143 -239 -165 -340 -25 -115 -15 -317 21 -441 32 -112 102 -254 155 -319 44 -54 55 -89 18 -57 -13 11 -48 40 -78 66 -140 118 -241 306 -270 506 -16 107 -8 331 14 414 9 33 39 107 68 164 42 84 68 121 137 193 128 135 248 212 418 269 158 52 387 61 552 20z"/> <path d="M1040 1697 c-25 -6 -48 -15 -52 -21 -4 -6 -8 -7 -8 -2 0 5 -7 3 -15 -4 -8 -6 -18 -9 -24 -6 -5 3 -12 -1 -15 -10 -4 -9 -9 -14 -13 -11 -3 4 -13 -2 -22 -12 -9 -10 -26 -21 -37 -25 -12 -4 -24 -16 -27 -27 -3 -12 -10 -18 -16 -14 -6 3 -11 0 -11 -8 0 -8 -7 -20 -15 -27 -9 -7 -13 -15 -11 -17 2 -3 -5 -14 -15 -24 -14 -14 -18 -27 -13 -41 3 -12 2 -18 -4 -15 -5 4 -17 -22 -26 -56 -21 -77 -22 -260 -3 -332 8 -27 12 -56 9 -64 -2 -8 0 -11 6 -8 5 4 19 -16 31 -44 12 -27 46 -74 75 -104 29 -30 50 -58 47 -61 -3 -4 -1 -4 6 -1 6 4 18 1 26 -7 8 -8 17 -12 21 -9 3 4 6 1 6 -6 0 -7 4 -10 9 -7 5 3 23 -2 41 -11 53 -26 196 -41 255 -27 28 6 76 17 108 24 31 7 57 17 57 23 0 5 7 6 16 3 8 -3 13 -2 10 2 -2 4 16 21 40 37 24 17 44 34 44 38 0 4 11 20 24 34 14 15 23 30 21 33 -3 4 4 15 15 25 10 9 17 22 14 29 -3 7 2 28 10 47 28 66 -18 103 -141 114 -29 2 -61 8 -69 13 -21 12 -72 -39 -77 -75 -2 -15 -10 -29 -18 -31 -11 -3 -11 -1 1 8 12 9 12 11 1 8 -8 -2 -16 -15 -18 -28 -4 -30 -4 -30 -41 -33 -17 -1 -30 -6 -29 -12 2 -12 -2 -12 -68 -1 -44 7 -54 13 -88 57 -21 27 -37 55 -34 62 2 6 -3 21 -12 31 -11 14 -12 17 -2 11 12 -7 13 -2 6 26 -16 70 -16 127 1 143 8 9 11 16 5 16 -17 0 -4 56 24 100 26 41 59 65 75 55 5 -3 11 -1 15 5 3 5 26 10 49 10 33 0 52 -7 80 -29 20 -16 37 -32 36 -35 0 -4 6 -19 14 -34 19 -36 58 -55 90 -42 13 5 53 12 88 16 62 7 93 19 98 39 1 6 5 16 8 23 2 7 -1 25 -7 38 -6 14 -9 30 -6 35 4 5 1 9 -4 9 -6 0 -10 3 -9 8 3 12 -43 82 -54 82 -6 0 -7 7 -4 16 3 9 2 12 -5 8 -6 -3 -20 3 -32 14 -24 22 -107 75 -107 68 0 -2 -19 2 -42 8 -54 16 -228 18 -288 3z m325 -48 c32 -12 77 -39 101 -61 47 -43 117 -167 105 -186 -6 -11 -155 -41 -202 -42 -9 0 -24 18 -34 41 -11 23 -35 53 -54 67 -29 22 -45 27 -96 27 -126 0 -182 -54 -205 -195 -24 -143 1 -260 70 -332 36 -37 54 -48 91 -53 95 -14 190 41 205 120 10 54 19 57 134 34 57 -11 106 -21 108 -24 7 -7 -30 -109 -53 -145 -32 -50 -109 -119 -161 -141 -66 -30 -212 -43 -293 -28 -228 42 -350 208 -351 473 0 249 129 428 338 466 78 15 231 4 297 -21z"/> <path d="M2386 1135 c-4 -16 -10 -46 -13 -65 -2 -19 -9 -51 -14 -70 -6 -19 -12 -48 -15 -65 -6 -36 -41 -143 -54 -167 -6 -10 -10 -25 -10 -33 0 -8 -4 -15 -10 -15 -5 0 -10 -7 -10 -15 0 -17 -20 -56 -33 -66 -5 -3 -8 -9 -8 -13 4 -33 -225 -306 -256 -306 -7 0 -13 -6 -13 -13 0 -7 -21 -26 -47 -43 -25 -16 -51 -33 -58 -39 -16 -14 -51 -34 -120 -67 -33 -16 -68 -33 -78 -39 -10 -5 -22 -7 -27 -4 -6 4 -10 2 -10 -3 0 -5 -17 -14 -37 -20 -21 -6 -63 -17 -93 -26 -30 -8 -71 -17 -90 -20 -19 -2 -55 -10 -80 -17 l-45 -14 38 -3 c61 -5 173 16 287 54 286 96 522 292 669 558 85 155 147 372 139 492 -3 46 -4 47 -12 19z"/> </g> </svg> 